<svg width="269" height="809" viewBox="0 0 269 809" fill="none" xmlns="http://www.w3.org/2000/svg">
<g filter="url(#filter0_d_106_59714)">
<path d="M240.63 655.061C244.816 658.506 248.955 662.151 253.467 665.133C248.165 666.458 242.769 659.036 237.56 656.783C235.653 657.976 233.885 659.301 231.746 660.163C235.653 665.265 241.141 667.982 246.025 671.627C236.862 672.024 230.118 656.518 220.072 664.338C223.653 668.38 229.281 672.157 232.258 675.404C227.281 676.861 222.072 666.458 216.304 665.597C211.932 664.934 207.932 668.711 202.49 668.512C206.397 669.506 209.699 676.199 214.258 677.126C218.49 677.988 223.141 675.404 225.513 680.837C221.699 679.048 218.49 679.379 213.653 679.644C215.42 682.03 217.234 684.482 218.769 687.199C224.816 688.126 231.56 687.927 234.63 693.56C230.351 692.301 226.676 690.048 221.327 690.512C221.932 692.632 224.63 696.078 225.792 699.126C230.537 700.054 235.606 700.451 238.49 704.228C235.839 704.758 232.118 702.373 228.676 702.373C228.63 704.957 231.188 707.74 232.723 709.529C236.537 709.596 241.467 708.005 243.885 710.258C242.583 711.517 237.374 711.915 235.234 711.849C236.118 714.3 237.792 715.493 238.909 717.547C236.351 718.674 233.885 715.427 232.165 713.505C231.467 715.758 232.165 719.8 231.42 721.987C229.746 716.156 230.63 707.542 226.351 704.957C225.839 709.331 225.932 714.499 226.118 719.8C223.188 716.355 225.188 706.746 223.792 701.114C222.769 697.006 220.258 695.813 219.327 692.5C218.165 698.463 218.909 705.752 218.537 710.855C216.072 706.879 217.048 695.945 217.513 690.114C215.699 686.536 213.839 683.09 211.281 680.638C211.467 686.602 210.769 690.512 211.141 697.469C207.653 693.229 210.537 682.759 208.769 677.789C207.374 673.946 204.955 674.608 202.351 672.289C203.467 676.398 204.351 683.554 203.234 688.06C201.002 683.554 202.165 673.747 199.188 670.5C186.909 671.759 176.909 671.825 167.978 673.084C169.467 675.205 170.816 677.988 173.048 679.711C178.258 683.62 187.653 680.572 192.676 684.879C191.606 686.47 190.025 684.482 188.49 684.15C184.862 683.421 180.165 684.415 176.304 682.958C177.653 685.94 178.769 690.777 181.839 692.5C186.955 695.349 196.444 689.319 197.699 698.861C194.072 693.427 187.327 695.15 183.327 694.885C184.816 699.126 187.095 702.174 188.909 705.885C193.653 708.668 202.955 704.361 206.723 708.668C205.746 710.921 204.769 708.535 203.234 708.403C199.327 708.005 194.072 710.391 190.397 708.734C190.676 712.114 192.444 713.108 192.723 716.487C197.839 716.752 205.141 717.746 209.56 720.794C205.002 721.589 200.165 718.21 194.583 719.336C194.63 721.391 196.49 725.035 197.281 727.553C204.769 729.674 212.63 731.264 215.792 740.21C210.769 734.842 205.327 730.999 198.769 730.469C199.792 734.908 202.118 737.294 203.281 741.535C209.978 743.722 216.816 745.643 220.351 752.8C216.165 749.354 211.699 746.24 205.839 745.312C206.351 748.294 209.606 751.541 210.676 755.384C206.397 753.595 205.374 746.703 202.258 743.059C201.374 748.625 200.955 755.185 202.49 760.354C198.165 756.908 200.118 745.974 200.769 740.143C199.746 736.698 198.351 733.914 196.676 731.529C194.258 736.764 194.351 746.438 195.374 755.384C192.769 753.992 192.816 748.227 192.909 744.185C193.048 738.42 194.258 731.33 195.885 728.613C194.258 724.77 192.769 720.662 191.002 717.083C189.095 724.174 187.56 735.969 188.769 743.987C184.118 737.824 188.397 722.848 189.513 714.234C188.165 710.788 186.351 708.072 185.048 704.626C181.467 709.927 181.56 724.041 182.397 729.541C177.653 722.517 181.606 708.734 183.234 701.246C181.095 696.939 178.49 693.427 176.258 689.319C174.258 697.072 175.513 709.861 175.746 716.62C173.048 713.373 173.42 705.819 173.42 698.927C173.467 689.584 175.281 682.958 169.002 680.373C168.769 690.578 168.444 694.753 169.048 703.168C164.351 692.5 171.048 675.536 160.769 673.018C155.653 671.759 148.351 675.139 141.327 673.813C142.955 686.271 159.002 677.458 163.002 687.729C158.49 683.488 152.211 683.819 145.839 683.421C146.583 686.735 147.048 688.192 148.165 690.18C152.955 692.765 161.141 689.982 163.653 696.078C159.467 693.162 154.165 694.753 148.63 693.626C148.909 707.608 160.63 701.18 166.723 705.289C166.025 707.144 164.537 705.156 163.234 705.023C158.723 706.084 155.095 707.011 151.792 705.289C153.234 714.433 159.048 718.077 166.165 719.204C168.304 719.535 171.095 718.077 172.816 720.728C167.188 721.987 160.537 720.463 155.327 716.951C156.258 732.457 166.304 733.716 176.444 734.842C172.304 736.565 163.978 736.167 159.699 732.987C160.351 736.499 161.42 739.282 162.444 742.197C163.978 742.595 164.723 744.715 166.723 745.378C170.49 746.703 176.118 743.854 177.606 749.089C173.141 746.902 168.909 749.752 164.676 746.968C166.63 761.083 183.699 754.257 186.816 764.793C182.118 760.155 174.862 760.552 169.56 758.034C174.397 767.311 180.723 774.203 185.002 784.275C179.188 777.118 174.258 768.504 167.932 762.143C166.862 768.835 168.025 774.335 168.862 779.902C162.258 774.137 170.072 757.041 164.118 751.474C161.932 755.848 160.816 763.203 161.234 769.498C157.467 763.601 161.56 753.86 162.63 748.095C161.42 745.312 160.304 742.396 158.862 739.944C156.537 744.981 155.327 751.474 154.955 759.028C151.746 753.727 156.025 742.396 157.699 736.565C156.351 733.318 155.048 730.005 154.211 725.897C151.653 730.469 149.374 735.372 149.188 743.059C146.165 737.957 150.072 730.137 151.792 726.559C153.095 720.463 150.955 715.162 149.513 710.391C147.606 716.288 144.63 723.312 141.699 726.294C144.351 716.156 151.839 706.548 145.188 694.885C143.095 700.849 141.606 707.608 139.56 713.571C138.118 706.084 142.909 698.728 143.699 690.976C142.63 688.192 141.56 685.277 140.304 682.759C137.885 686.668 138.025 693.957 137.048 699.789C133.746 690.18 141.978 677.922 134.444 673.217C125.885 673.88 116.862 671.892 108.676 671.958C108.769 673.548 111.141 676.066 111.327 679.181C116.118 682.958 122.862 683.687 128.583 685.939C123.932 687.861 118.537 684.548 113.188 683.488C113.699 686.47 114.583 688.921 115.513 691.241C118.955 697.469 129.746 692.235 132.165 700.054C129.002 696.012 121.699 698.463 117.42 696.078C119.374 712.445 135.234 707.011 140.072 718.873C134.816 713.571 127.606 711.385 120.955 708.27C121.467 711.782 122.397 713.77 123.002 718.011C130.165 720.993 137.188 724.174 142.165 730.601C136.909 728.812 131.234 723.113 124.49 721.854C124.723 724.77 126.955 729.143 127.653 733.053C134.304 736.167 142.211 737.36 145.467 745.776C140.49 740.673 135.56 738.487 128.816 736.499C129.699 740.806 130.862 744.715 131.978 748.691C138.118 749.288 145.653 752.137 148.769 759.227C144.258 755.583 139.281 752.601 132.862 751.872C132.909 754.589 135.141 758.366 135.978 761.546C140.955 764.064 149.746 764.992 152.583 770.36C147.234 768.239 143.467 766.98 137.839 765.39C139.281 770.426 141.281 774.6 143.141 778.908C149.048 784.01 159.002 782.883 162.351 792.028C158.118 787.191 151.653 785.932 146.072 783.215C147.002 787.257 152.072 791.763 153.095 795.606C149.978 795.275 148.072 788.516 145.141 786.197C143.467 791.431 142.118 797.13 139.374 800.973C138.676 796.865 142.63 790.769 143.374 785.335C142.769 781.426 140.258 780.498 138.63 778.245C135.467 782.95 134.072 792.492 129.746 794.214C131.374 790.437 133.281 785.136 135.188 780.498C136.211 778.046 138.211 776.257 138.072 773.341C137.932 769.631 135.188 768.372 134.63 763.667C131.513 767.51 130.583 774.203 128.537 779.438C126.909 774.269 131.002 766.516 133.141 760.818C132.025 756.312 130.304 752.8 129.234 748.227C125.327 754.522 124.397 764.661 121.327 772.016C122.025 760.95 124.63 752.336 128.444 745.312C127.327 742.264 126.072 739.282 125.327 735.637C120.955 740.408 119.281 748.625 116.583 755.516C115.885 747.3 121.188 738.818 124.165 732.258C123.327 728.216 122.072 724.836 121.327 720.529C117.234 724.505 113.932 736.167 111.606 742.462C110.723 742.661 111.095 740.408 111.141 739.547C111.746 731.661 117.978 724.041 119.792 716.686C119.467 713.903 118.258 712.511 117.839 709.861C114.304 715.029 112.072 721.987 109.42 728.282C108.118 721.921 114.676 713.041 116.723 707.011C116.072 703.698 114.769 701.445 114.025 698.265C110.537 703.367 109.792 711.981 104.49 714.764C107.327 708.469 110.444 702.572 112.537 695.415C111.699 691.704 109.932 689.451 109.095 685.741C105.978 691.042 103.885 700.054 98.8157 701.313C101.699 695.018 110.072 686.801 105.374 678.12C102.583 684.482 98.6297 689.253 94.7692 694.156C96.025 685.807 102.49 684.283 103.56 675.735C101.653 672.09 99.1413 675.867 96.2576 676.199C94.6762 675.602 97.6994 673.482 98.211 672.62C86.1645 669.506 75.0017 671.627 61.4203 674.542C64.9087 682.494 80.4436 672.952 84.9087 680.903C83.4203 682.825 81.6529 680.108 79.3273 679.777C74.9552 679.181 69.5599 681.897 65.4669 680.705C65.4204 687.199 75.4669 685.542 75.3738 685.476C80.8157 686.271 86.2576 688.723 89.8855 693.427C85.1878 689.319 75.2808 689.319 68.4901 687.927C69.0017 690.048 70.118 691.307 70.7692 693.229C79.0483 696.343 89.2343 696.608 93.7924 705.554C88.3971 699.391 79.4203 698.728 72.3041 696.608C74.3041 713.903 89.932 709.861 96.7227 719.734C90.6296 715.427 82.3971 714.433 76.5831 709.662C76.4436 711.12 77.932 714.433 78.5366 716.487C81.2343 721.192 84.8157 723.842 89.2808 726.692C93.2808 729.21 98.4901 729.409 99.6529 735.902C94.1645 730.336 86.5831 727.951 80.4436 723.312C80.8622 727.354 82.3971 729.607 82.8622 733.583C91.932 736.565 99.8389 745.842 105.141 756.378C100.304 751.938 95.6064 743.854 89.6064 739.083C87.9785 737.758 85.932 737.625 84.3041 736.432C84.211 738.487 85.7924 742.462 86.6762 744.715C92.9087 749.553 99.0017 754.522 102.258 763.998C97.2808 759.161 93.5134 752.402 87.839 748.625C91.0017 760.287 96.3041 768.703 100.304 778.974C96.6762 776.522 95.2343 770.625 92.5831 766.582C90.4436 769.299 91.9785 778.245 91.6994 782.022C87.9785 776.853 92.1645 764.727 89.2343 759.426C86.6297 763.733 85.2343 769.697 84.9552 777.052C81.5134 770.89 86.211 761.281 88.0715 756.047C87.5134 753.794 86.5366 752.203 86.118 749.751C82.0715 754.125 81.3738 762.872 78.7692 769.034C78.1645 760.022 81.7459 752.468 85.0017 746.836C84.025 743.854 83.0948 740.872 82.2576 737.625C78.3041 742.595 77.1413 751.209 74.211 757.504C73.4668 748.956 80.4436 735.969 81.5134 736.234C80.8622 732.39 79.2343 730.137 78.7227 726.029C75.0483 730.005 70.8622 737.294 68.9087 744.981C67.2808 735.571 74.4901 729.541 77.2343 722.65C76.6761 719.204 75.2343 717.15 74.5366 713.903C70.025 719.403 66.5831 728.812 60.8622 731.131C64.8622 724.174 70.3041 719.071 73.0483 710.523C72.6296 707.011 70.6762 705.885 70.3506 702.307C66.5831 708.005 59.4669 722.252 59.2343 723.842C57.9785 719.138 61.3738 714.698 63.3273 711.186C65.5599 707.144 67.3738 703.367 68.8157 698.927C67.6529 695.945 66.4436 692.963 65.0483 690.247C62.1645 695.747 60.025 704.825 60.1645 711.385C56.3041 704.957 61.8389 693.295 63.5599 687.861C63.0483 685.873 61.8389 685.012 61.0017 683.554C58.025 689.783 54.7692 695.68 54.0715 704.825C50.5366 696.409 57.9785 688.855 58.8622 681.235C58.5366 680.373 58.025 679.777 57.4203 679.379C54.7227 682.494 53.5134 687.596 50.4901 690.247C50.0715 685.476 54.118 682.759 54.9552 678.054C50.211 676.132 45.5599 684.084 41.2808 685.873C37.1878 691.174 33.5599 710.656 28.025 734.776C27.3273 733.649 26.6296 732.523 25.932 731.396C25.3273 729.674 24.6761 727.951 24.0715 726.162C25.0482 726.162 24.9087 726.625 25.8855 726.029C26.5831 726.36 25.8855 728.812 26.6762 728.945C28.5366 725.698 25.4203 719.601 27.0017 717.017C28.9087 716.62 27.6529 719.601 28.8157 719.403C28.9087 715.758 28.025 713.704 28.1645 710.06C28.9552 708.867 30.304 708.403 29.7459 705.487C29.0948 703.963 28.3971 705.752 27.6529 704.626C27.7924 701.975 29.3273 699.391 27.7459 697.204C30.4901 697.602 28.211 691.506 31.4203 692.5C31.6064 694.488 30.7227 695.018 30.8622 697.006C31.5134 695.481 32.8622 692.831 33.932 695.813C33.6064 694.09 34.6296 693.361 33.8389 692.367C33.4669 691.174 31.3273 692.831 31.6994 690.512C33.4203 689.253 35.0483 688.59 36.1645 688.259C35.3738 686.933 32.211 689.253 32.3041 686.536C33.0482 685.277 35.1413 685.807 36.0715 684.813C35.0017 684.879 34.3041 684.482 33.932 683.488C35.2343 681.434 37.6529 683.885 38.3506 680.705C37.1878 680.97 36.3506 680.705 36.5366 678.849C37.8855 677.458 39.8855 679.843 40.3041 677.126C39.4203 676.729 37.8855 677.391 37.8389 675.801C40.6297 673.88 45.3738 675.205 49.6529 675.006C49.5599 673.747 48.9552 673.482 49.932 673.018C58.8157 673.084 66.1645 665.795 78.2576 667.187C81.2808 667.121 78.9552 666.259 77.1878 666.789L71.9785 667.121C66.3971 667.386 58.5366 668.446 51.932 670.434C48.7227 671.361 44.211 674.94 41.8389 670.633C42.8622 668.843 42.8622 664.669 43.6529 662.615C45.0948 662.416 44.1645 664.47 44.7692 664.536C45.0483 663.145 45.5134 662.018 45.6994 660.494C49.2808 656.32 52.5366 649.892 56.6296 643.928C60.5831 638.163 63.6529 631.338 66.8157 626.435C67.4669 625.374 70.211 621.862 70.8157 621.73C71.1878 621.664 71.6529 622.856 71.8855 622.658C73.6064 621.2 75.4669 616.164 77.839 613.314C80.5366 610.067 83.6064 606.025 85.5134 602.911C88.6762 597.61 91.7924 592.773 95.4669 587.869C105.606 574.153 114.304 559.177 122.862 543.472C127.513 534.991 132.769 527.105 136.63 518.292C142.118 505.768 144.769 488.739 145.188 471.179C145.653 449.974 145.746 435.926 144.025 413.794C141.002 374.831 132.165 344.88 121.374 316.254C123.234 321.886 123.932 328.645 125.467 334.808C126.769 340.175 128.862 344.814 130.118 349.386C139.606 383.445 144.537 424.662 142.955 464.95C142.351 479.992 141.467 495.895 138.118 507.889C137.002 511.865 134.537 516.238 132.63 520.611C130.769 524.985 128.862 529.623 126.769 533.4C112.444 559.376 96.4901 581.177 80.4436 604.833C65.0948 627.429 49.4203 650.157 33.932 671.295C33.3273 672.223 34.3971 672.687 33.6529 673.813C32.1645 672.024 32.9552 676.066 31.2808 675.47C30.1645 673.747 33.1878 671.229 31.4668 670.036C30.9087 671.03 31.1413 673.084 29.8389 673.084C28.4901 669.572 32.5831 667.054 31.6064 664.072C31.3273 662.813 30.0715 665.928 29.8389 663.675C29.7459 660.163 33.0017 658.308 31.3273 655.657C30.7692 654.067 29.932 657.711 29.5599 655.259C29.6064 652.344 31.1878 651.416 31.4203 648.699C31.1413 646.91 30.3506 645.85 29.8855 644.326C30.1645 642.139 30.8157 640.483 31.4203 638.76C30.8622 636.639 29.1413 633.724 29.7924 631.404C30.118 631.404 30.211 631.007 30.4901 630.874C31.9785 631.669 31.2808 635.91 32.7692 636.639C33.2343 631.868 28.8157 627.627 29.5134 622.459C29.8389 622.459 29.932 622.061 30.211 621.929C31.6064 624.049 31.9785 627.826 33.2808 630.145C32.211 623.718 30.2575 620.338 28.5831 614.11C29.0948 613.845 29.4204 613.314 29.932 613.049C31.3738 616.164 32.1645 620.338 33.4204 623.718C33.1878 615.899 29.7924 608.676 27.8389 601.785C27.8855 600.393 29.0948 600.592 29.5134 599.664C29.1878 595.622 25.0017 590.586 27.3738 587.405C29.3738 590.453 30.025 598.471 31.6064 600.526C30.6296 595.092 29.0483 590.652 27.9785 585.417C27.1413 585.55 26.3041 585.616 26.2111 584.556C23.6529 555.334 22.3041 530.352 19.0948 505.304C18.5832 505.238 17.839 505.57 17.6994 504.907C17.0017 494.238 16.6762 479.13 15.6529 463.956C15.6064 463.161 14.6762 463.757 14.5831 463.028C14.7227 459.848 14.025 458.058 13.9785 455.143C15.6994 452.824 14.8157 444.739 13.8855 441.758C14.4901 426.848 12.1645 411.077 11.6994 395.837C11.4203 386.427 9.09477 375.494 11.2343 370.59C10.7692 356.874 10.2576 352.898 10.2576 340.904C10.2576 326.194 9.69943 308.766 10.3971 291.869C10.6762 284.646 11.839 267.881 13.0483 266.954C14.2576 266.026 13.1878 269.339 14.0715 266.887C15.0482 264.171 14.5831 258.671 15.7924 255.888C13.932 256.617 15.6529 261.984 12.8622 261.52C13.8855 254.96 13.6064 246.677 16.3971 242.436C17.0483 242.502 16.5831 246.942 17.1878 245.352C17.3738 242.436 17.7459 239.786 18.3041 237.334C17.4669 237.466 16.6297 237.533 16.5366 236.472C19.1878 212.485 26.7227 194.793 32.2576 174.516C32.6762 173.787 33.8855 174.118 34.3041 173.389C34.7692 166.167 38.1645 159.341 40.211 152.715C42.5831 154.239 42.9087 149.336 44.211 148.01C44.025 146.287 42.6762 147.149 43.4204 145.095C43.5599 143.438 45.0483 145.294 45.5134 144.962C46.5366 144.233 46.118 141.715 47.4204 139.396C48.0715 138.203 48.7692 139.33 49.1413 138.27C49.6529 136.679 49.1878 134.426 49.6529 133.3C50.2576 133.234 50.7227 133.366 51.0483 133.697C51.1413 131.312 51.2808 128.926 52.5832 128.131C53.2343 129.059 52.5832 130.914 52.3506 132.107C56.025 125.547 64.5366 122.698 63.8855 112.029C63.3273 114.945 63.0948 118.258 61.3738 119.65C60.7692 116.8 62.9087 115.077 61.839 113.156C61.0483 115.939 60.7227 121.77 59.0018 121.77C59.1413 119.252 59.7459 117.396 60.1646 115.276C57.7459 116.999 58.9087 125.945 56.3506 125.945C56.3041 123.625 57.8855 120.975 56.8157 118.987C54.7692 120.577 56.4901 125.481 54.3041 127.601C53.6064 127.137 54.9087 124.023 53.7925 123.161C35.1413 152.119 24.4901 191.479 14.2111 231.304L14.3041 234.286C6.39708 268.412 5.65291 309.893 5.69942 343.82C5.74592 366.283 7.9785 390.138 7.9785 413.993C7.9785 432.414 9.00175 451.697 10.4901 469.787C12.2111 490.925 15.0948 512.991 17.0483 532.738C19.1878 553.81 20.4901 574.418 21.8855 595.357C23.2808 616.628 27.3273 639.687 26.118 660.958C25.7924 666.524 25.1413 671.958 24.9087 677.391C24.2576 692.036 22.5366 704.029 20.3506 716.09C19.9785 714.963 19.5599 713.837 19.1878 712.71C19.1413 712.644 19.0947 712.511 19.0482 712.445C21.4668 698.795 22.9552 685.012 23.2343 668.512C23.4668 654.928 23.1878 640.085 22.5366 626.435C21.8855 612.652 19.4204 597.544 18.3041 582.634C17.4204 570.641 17.3738 558.713 16.118 548.111C14.4436 533.93 13.6994 519.551 11.932 505.304C9.79244 487.943 7.74595 468.462 7.69941 450.571C7.6529 429.896 5.32731 413.529 4.49012 395.307C3.69941 377.747 4.16453 356.476 4.02501 338.85C3.79243 311.085 5.18779 286.833 8.07152 260.791C10.0715 242.9 14.025 226.069 17.839 209.106C21.4669 192.937 26.3506 177.1 31.6064 162.655C41.0017 136.944 52.2111 116.403 68.5366 100.764C63.3273 99.2403 63.6994 88.9031 60.025 84.9935C59.6994 82.6743 60.3971 81.6803 60.9087 80.4875C56.8622 81.2827 56.5832 75.1865 55.6529 68.9578C55.1413 65.3132 53.6064 62.7289 53.6064 60.1446C53.7459 48.0846 72.118 44.5727 81.8855 42.4522C73.932 39.5366 68.2576 41.8558 58.9087 40.9944C54.6762 34.368 59.6064 24.6935 62.3971 19.9888C69.3273 20.7177 74.9552 20.3201 80.9087 22.7056C78.8622 19.2599 70.2111 18.9948 71.7925 9.91668C73.6064 7.86248 75.4204 6.53722 76.118 4.15172C83.5134 -1.48066 89.1413 6.6035 94.7227 9.85039C94.4901 7.39867 92.4901 5.60955 93.1413 3.48913C96.9087 -2.67341 105.281 0.175893 108.165 5.47704C112.583 -1.61317 124.118 1.43493 124.072 13.3624C130.955 8.39263 143.095 3.48907 149.42 12.1697C156.258 21.6454 149.56 44.2413 146.444 49.0123C148.258 49.2773 150.025 49.6086 151.374 50.6689C152.909 55.4399 156.304 69.7529 151.002 71.4757C156.304 76.1804 155.048 82.8731 151.979 90.2284C150.955 92.6802 148.955 98.7764 147.42 98.9752C143.606 99.439 141.699 84.5959 139.885 81.6141C142.165 94.1379 145.234 112.427 140.537 123.161C137.653 129.788 131.141 129.258 124.816 131.643C123.885 129.987 122.676 128.728 122.862 125.348C120.258 129.523 119.374 141.053 112.537 139.926C110.816 139.595 109.839 137.209 107.188 135.818C103.56 133.896 99.0018 135.553 98.3041 130.45C97.7925 126.607 101.792 119.649 103.42 116.27C109.327 103.945 116.118 88.2405 119.095 74.5901C115.141 83.6683 108.769 97.2524 102.118 108.385C98.8622 113.885 95.0483 119.915 91.4669 123.427C89.4204 125.414 86.9087 127.137 84.6297 126.872C81.7459 126.541 80.3041 122.234 77.7459 118.39C76.118 115.939 74.4901 115.74 74.0715 111.698C43.5134 136.083 30.5366 183.263 20.3506 234.153C13.5599 270.333 12.0715 303.796 12.0715 343.157C12.118 376.156 15.0948 411.74 16.8157 445.402C17.4203 457.197 17.5134 468.197 18.6297 479.462C20.0715 494.106 22.9087 508.088 24.5366 522.136C30.1645 570.044 36.8622 618.682 35.7924 664.536C39.7924 661.952 42.025 653.006 46.7692 649.958C51.0017 642.537 55.8389 635.844 61.0483 629.682C72.8157 609.14 125.281 537.244 125.792 526.31C126.211 517.431 118.769 506.166 120.955 495.895C126.258 500.6 127.792 510.871 128.723 521.142C138.304 502.588 140.49 472.04 140.723 441.559C140.769 434.734 140.63 428.107 140.072 421.812C136.072 377.283 125.002 333.35 111.188 303.399C110.165 305.32 111.467 312.344 109.839 315.856C103.932 320.893 98.5366 323.145 95.1878 313.869C92.7692 307.242 91.932 295.513 90.9087 289.417C89.5599 301.08 91.0948 314.465 87.1413 323.344C83.3273 324.736 80.3506 323.941 76.7227 323.543C71.7924 306.248 73.5134 285.839 75.5599 266.689C71.6064 283.056 72.5831 305.32 69.0483 322.615C62.025 324.338 56.7692 318.971 57.7459 306.513C52.7692 305.983 51.0948 300.284 47.6994 297.303C49.2343 281.731 54.3041 267.285 60.6297 256.815C63.839 251.514 66.3506 246.81 71.6994 244.689C69.1878 230.973 61.9785 192.208 70.025 183.395C73.6529 179.419 80.3506 183.263 83.3739 186.973C89.4669 194.594 99.7925 210.365 102.909 220.834C103.513 222.756 103.792 223.684 103.42 225.738C113.374 221.431 131.885 226.069 139.467 233.226C141.048 234.75 144.072 238.46 144.211 240.316C144.49 244.358 140.862 245.882 140.351 249.99C139.374 250.719 137.932 250.785 136.862 250.189C140.165 253.966 144.676 258.34 144.676 265.496C143.095 268.478 141.839 270.731 140.118 274.707C136.816 282.327 131.234 271.592 127.746 268.61C129.327 272.719 132.862 278.285 134.49 283.984C134.211 289.815 131.792 292.797 127.141 292.863C120.816 302.471 116.816 293.989 113.839 285.441C127.327 325.332 141.746 367.343 145.234 421.415C145.699 428.306 146.583 432.083 146.118 438.179C148.862 438.776 150.397 444.739 153.699 446.131C153.746 441.691 153.234 439.306 153.699 435.728C151.467 432.878 146.955 428.505 148.072 423.734C149.978 426.119 150.816 430.161 153.188 431.818C155.839 424.33 154.769 420.752 151.932 414.589C150.862 412.204 149.095 410.216 148.583 407.897C152.165 408.559 152.862 413.662 154.769 416.909C156.258 411.077 156.816 404.12 160.537 401.204C159.513 405.379 158.583 409.752 157.839 414.258C162.723 414.722 167.281 409.222 171.467 405.909C171.932 407.897 169.746 410.216 168.537 411.541C165.792 414.589 162.351 416.644 157.606 417.704C157.048 419.824 156.955 422.541 156.816 425.192C161.467 426.517 167.048 420.487 170.165 418.366C167.746 424.396 162.955 427.312 156.955 428.637C156.304 430.294 156.909 433.673 156.862 436.059C161.467 435.065 165.839 432.812 168.909 432.282C165.839 435.86 160.909 437.053 156.955 439.505C157.234 442.42 157.746 444.872 157.932 447.854C162.397 445.27 165.234 443.215 170.583 441.559C167.467 445.866 161.885 446.992 158.723 451.233C159.281 453.089 159.141 456.137 159.653 458.125C163.234 456.468 166.769 452.294 169.885 451.498C167.792 456.203 163.374 457.86 160.49 461.504C160.583 464.619 161.792 466.076 161.467 469.853C165.56 466.606 169.42 463.161 174.397 461.04C171.327 466.341 165.699 468.396 161.932 472.769C161.792 476.811 162.63 479.263 162.955 482.576C168.723 477.01 178.909 467.203 183.699 458.39C184.583 456.733 186.351 452.028 185.141 449.378C183.653 446.529 179.374 448.053 178.025 444.872C181.002 444.408 183.513 444.607 185.374 445.866C184.769 436.987 176.769 439.571 173.885 434.27C176.072 433.276 181.048 436.456 184.072 437.583C184.304 434.601 183.42 432.481 182.816 431.222C181.095 426.649 174.63 429.499 173.56 423.933C176.072 424.86 179.002 425.125 181.606 425.854C182.118 424.993 180.909 422.475 180.769 420.951C180.63 419.891 180.165 419.493 179.653 418.366C179.979 415.12 177.327 418.698 176.769 415.782C177.746 415.053 177.653 415.65 179.188 415.65C177.513 410.481 176.816 403.788 174.165 400.144C169.885 399.349 166.211 397.692 164.862 392.325C168.165 393.716 170.118 397.295 174.397 397.162C173.141 389.608 167.839 388.349 166.211 381.391C169.932 381.458 169.792 387.62 172.723 388.879C173.467 386.692 173.141 383.114 174.955 382.319C174.909 385.566 174.444 386.295 174.49 388.813C178.118 388.018 176.397 376.223 180.258 374.036C179.188 381.06 178.537 388.548 175.653 393.186C176.49 397.56 177.188 402.264 178.49 405.843C182.769 402.596 179.42 389.409 184.118 386.626C181.979 393.65 183.792 404.517 179.281 409.222C180.025 411.541 180.676 413.993 181.281 416.511C185.56 413.861 184.676 404.517 188.444 401.204C186.909 408.824 185.979 414.656 182.444 419.957C182.723 423.336 183.885 425.324 184.118 428.77C188.072 426.318 190.025 421.282 191.699 415.915C192.955 422.276 188.211 429.035 184.955 432.679C185.467 435.197 186.165 437.384 186.583 439.968C189.467 437.583 192.351 431.023 196.304 428.439C194.444 436.324 186.118 439.703 188.304 449.775C192.723 443.017 197.42 436.655 200.816 428.637C202.165 419.957 197.699 419.029 195.467 414.656C197.281 413.33 198.769 416.644 200.444 417.306C200.723 408.162 193.141 411.409 191.048 406.041C193.374 405.776 197.281 406.837 199.141 408.957C198.723 405.776 197.885 403.258 197.141 400.674C194.769 398.289 190.351 399.216 189.653 394.246C191.979 394.445 194.258 396.764 195.653 396.831C195.653 388.018 186.072 386.891 185.653 378.674C188.537 380.265 189.746 384.439 192.49 386.162C191.095 382.054 191.374 379.47 191.095 375.361C193.374 377.946 194.723 384.307 196.397 389.343C197.792 385.5 198.304 380.464 199.095 375.759C199.746 375.693 200.537 380.662 197.42 391.132C196.537 394.114 199.095 398.951 199.932 401.469C202.583 397.228 204.63 390.602 204.583 384.307C206.444 386.03 205.979 390.668 205.56 393.186C204.862 397.295 201.839 402.198 200.723 404.915C201.699 407.367 201.606 411.475 202.072 414.722C203.048 414.656 204.397 413.397 205.095 412.071C206.444 409.421 205.792 404.385 207.932 402.993C210.211 407.963 205.699 415.716 202.862 418.698C203.188 421.481 203.885 423.668 203.839 427.047C206.909 421.746 213.606 412.668 212.397 401.734C211.792 396.102 209.095 392.855 208.118 387.156C212.211 388.548 212.025 396.632 214.118 401.138C221.281 391.463 208.955 383.777 209.42 373.705C211.002 374.036 211.327 378.012 212.444 380.464C213.606 382.982 215.002 385.301 216.49 386.626C216.769 388.283 217.653 388.945 218.025 390.469C219.188 387.355 221.048 385.831 219.839 381.458C218.304 375.958 212.537 368.669 215.792 364.362C217.42 368.337 218.397 376.62 221.513 379.801C223.188 376.753 221.885 369.861 224.955 368.669C225.699 369.53 224.909 375.693 224.258 379.138C226.816 380.729 228.258 376.819 230.444 376.223C230.816 380.199 226.816 382.12 223.374 382.65C222.258 384.97 221.979 388.415 221.234 391.198C226.676 390.734 230.118 387.62 233.188 383.976C233.095 390.006 226.583 392.59 221.002 393.849C219.374 396.168 218.955 400.011 217.839 402.993C224.072 402.463 229.281 400.475 233.653 397.493C230.676 405.578 221.792 403.06 216.258 407.565C214.862 410.216 213.792 413.198 212.723 416.246C215.885 414.059 219.979 412.999 224.444 412.469C219.979 416.909 211.885 419.891 211.327 419.957C209.932 423.668 205.002 431.42 203.281 434.734C215.095 434.932 217.002 418.168 229.513 417.638C227.188 419.957 224.351 420.487 222.025 422.607C219.746 424.662 214.258 432.878 212.63 433.607C213.56 434.932 215.746 434.27 216.862 435.33C217.653 433.077 227.653 424.662 231.095 423.469C232.072 423.137 235.56 422.21 236.351 424.595C229.839 424.927 225.746 432.216 220.723 436.059C229.792 443.547 234.63 426.451 243.095 429.101C238.583 430.559 234.63 435.86 230.211 438.842C235.56 446.396 240.816 431.487 245.746 435.86C245.606 437.715 245.002 436.125 243.699 436.523C241.513 437.782 240.583 440.697 238.304 441.824C240.118 443.414 251.979 448.119 254.304 452.161C251.002 453.155 248.304 449.179 245.141 448.318C246.165 455.408 249.374 459.052 251.885 463.691C246.816 461.57 244.862 454.546 243.002 447.456C240.351 445.535 236.955 445.071 234.537 444.077C235.746 450.438 237.327 460.842 239.792 467.004C234.258 463.89 235.374 450.372 232.072 443.746C230.072 441.824 227.188 441.36 224.676 440.3C225.792 447.125 228.676 453.685 230.165 459.251C225.281 456.137 224.955 445.932 222.211 439.438C220.351 439.041 218.537 438.577 216.304 438.842C217.048 444.607 220.723 450.239 222.118 456.799C217.699 453.155 216.537 444.408 213.513 438.577C210.304 438.113 208.304 440.167 204.537 440.167C209.932 443.679 214.118 449.113 217.56 455.673C210.955 452.161 208.676 441.89 199.746 442.023C194.397 449.775 189.095 457.528 184.537 466.341C195.792 472.305 198.49 454.414 208.165 455.342C202.537 458.456 198.537 463.691 194.351 468.661C201.979 476.546 208.165 464.354 217.141 464.155C215.606 467.468 212.351 467.07 209.979 468.594C207.653 470.052 205.932 472.968 203.513 473.498C207.281 475.751 209.932 478.733 214.723 476.215C217.746 474.624 221.048 470.781 224.258 469.655C225.699 469.125 228.583 467.667 229.839 470.251C223.048 471.046 219.374 475.883 214.49 479.197C220.583 487.281 228.211 477.606 235.979 476.811C232.769 480.257 228.258 481.913 224.397 484.498C228.723 488.474 235.095 489.202 239.606 492.913C236.444 492.118 233.095 491.654 230.165 490.594C230.769 492.913 233.56 496.359 233.979 500.732C231.42 498.678 228.351 490.13 229.095 490.13C227.513 488.937 225.513 488.474 223.792 487.48C226.025 492.516 226.862 499.937 229.234 505.437C225.606 505.371 225.513 497.75 223.979 492.913C223.002 489.865 221.188 488.474 220.955 485.69C219.095 484.829 217.002 484.233 215.327 483.106C216.165 489.07 219.374 498.082 220.165 504.112C215.792 499.871 215.606 489.07 212.862 482.311C211.095 480.787 208.862 479.926 206.816 478.733C206.49 486.751 211.56 493.443 212.676 499.142C208.118 495.365 205.327 486.022 204.676 477.871C202.63 476.414 200.165 475.552 197.606 474.889C199.188 483.172 201.188 489.733 203.839 495.299C198.909 493.311 197.606 481.185 195.141 473.564C193.002 473.498 191.792 471.908 189.513 471.974C191.141 477.209 193.374 485.558 193.979 491.522C190.304 487.016 190.397 476.745 186.723 472.173C184.909 471.576 182.397 471.974 180.118 472.106C173.839 480.058 166.769 486.949 160.723 495.166C170.444 498.678 172.351 486.751 180.909 485.889C176.63 489.136 173.56 494.04 169.095 497.088C176.304 501.726 182.258 488.341 191.141 490.66C185.234 492.648 180.537 496.823 175.467 500.136C176.537 502.985 179.095 503.449 180.862 505.238C183.188 499.871 189.699 497.485 195.606 498.347C191.374 500.732 186.444 502.19 182.63 505.172C187.281 514.78 196.723 503.184 203.839 505.768C200.63 509.015 194.351 508.286 191.513 512.063C195.792 517.365 205.327 511.136 210.583 510.804C207.141 514.78 202.909 514.913 198.258 517.099C201.281 520.876 206.304 524.256 208.676 527.304C206.444 528.364 202.537 523.129 199.467 522.003C198.723 524.852 200.816 532.009 198.909 536.382C197.188 530.485 198.49 522.666 195.885 518.756C193.699 517.298 191.839 515.377 189.467 514.25C190.444 519.485 192.955 527.304 191.792 532.406C189.56 530.617 190.304 525.846 189.746 522.666C189.002 518.491 187.188 515.377 186.63 511.997C184.862 510.804 183.048 509.612 181.281 508.419C180.955 514.78 184.118 519.75 184.258 525.051C181.188 523.925 179.979 512.792 179.188 508.021C178.072 506.298 176.025 506.033 174.211 505.371C174.118 507.889 175.513 516.238 174.723 521.208C171.281 516.901 175.002 501.395 167.885 502.853C167.42 507.292 169.467 514.913 169.792 518.093C165.932 516.503 167.141 507.027 165.42 502.058C160.258 499.208 153.327 500.666 150.258 505.57C150.304 508.286 151.327 509.347 151.56 512.925C154.49 516.437 161.048 514.383 163.234 519.087C160.909 520.678 156.723 516.569 152.769 517.298C152.351 520.28 154.49 523.527 154.49 527.569C158.025 530.352 163.606 526.708 166.723 529.756C163.932 532.009 160.118 530.551 155.978 531.479C156.351 534.527 157.839 535.852 158.304 538.768C162.351 539.695 167.746 538.569 170.583 541.418C168.862 544.135 163.281 539.828 159.839 542.147C160.723 551.159 168.723 549.039 172.723 553.213C170.444 555.599 168.211 552.153 165.42 552.683C166.444 556.129 170.816 558.779 172.025 563.617C169.42 562.821 168.816 558.978 166.63 557.52C164.397 561.629 166.583 567.725 165.699 571.966C162.816 569.713 163.839 560.171 164.816 556.195C163.699 553.412 162.025 551.557 160.444 549.569C159.048 552.352 161.653 559.84 159.839 562.954C157.234 559.044 159.188 551.026 158.583 545.725C158.025 540.822 155.281 537.973 154.397 534.129C152.072 539.629 154.955 549.502 153.653 553.478C151.513 548.906 150.537 534.196 153.606 530.684C152.769 527.768 152.025 524.852 151.56 521.407C149.188 525.913 148.816 533.003 146.537 537.575C145.839 527.702 152.537 518.226 147.048 510.804C139.932 515.045 135.978 527.039 130.862 536.647C119.792 557.322 107.234 575.412 94.1645 594.032C76.8157 618.748 60.7692 643.995 44.4901 669.175C53.3273 668.38 65.3273 667.452 69.5599 659.103C70.4436 651.88 63.7924 654.067 65.0483 648.037C67.1413 650.687 69.7924 652.344 71.5599 655.524C72.2576 651.35 76.3041 647.904 76.7227 643.266C77.0948 638.76 74.3506 636.175 74.2576 632.067C76.8157 630.609 76.7227 637.501 77.9785 639.754C79.6994 635.91 81.932 630.477 83.1413 627.495C83.3273 624.314 80.3971 623.718 81.5134 620.67C83.5134 620.537 83.6529 623.188 84.4436 624.911C87.5599 622.061 89.5134 616.628 87.839 611.327C90.3041 610.73 90.3971 616.164 89.7924 618.616C93.1413 616.031 95.5599 608.146 99.7924 605.098C97.1878 611.327 92.8157 615.302 90.9552 622.525C92.3971 623.917 96.118 621.73 97.5599 623.055C96.3041 625.639 91.4669 625.772 88.9552 625.109C87.7924 626.899 86.7692 628.886 86.025 631.272C88.8622 631.139 92.2576 632.398 95.7459 631.139C94.6297 636.242 89.2343 633.061 85.0483 634.32C82.9552 636.838 81.5134 640.151 80.118 643.531C82.9552 642.139 87.6529 642.338 91.1878 642.272C89.1878 647.308 81.9785 643.464 78.8622 647.573C78.0715 649.561 77.2343 651.416 76.2575 653.205C78.9087 653.735 85.0948 652.278 88.118 654.862C85.3273 658.308 78.8157 653.404 75.0017 657.247C73.6529 659.567 72.4436 662.151 71.0483 664.47C83.6064 662.35 96.1645 666.723 105.467 664.669C106.258 662.615 108.583 659.301 108.676 656.055C108.816 648.766 101.42 644.326 101.839 637.699C104.723 642.007 107.374 646.711 109.932 651.549C110.909 649.163 111.746 646.976 111.792 644.458C111.885 637.103 105.513 629.748 108.723 624.38C108.909 630.543 111.792 632.465 112.63 637.501C115.002 633.922 113.513 629.085 115.374 626.435C114.211 619.079 111.188 614.64 108.909 609.007C112.909 610.73 114.304 616.495 116.258 621.399C117.467 618.284 117.978 614.176 119.048 610.796C118.444 606.025 114.49 597.212 117.42 593.568C117.653 597.08 119.095 602.182 119.932 606.29C123.374 601.056 124.816 591.514 123.002 583.297C124.816 584.423 125.002 588.134 125.699 591.05C129.141 586.213 131.42 578.658 134.862 573.622C136.118 571.767 138.258 569.249 140.304 569.315C138.211 574.815 134.537 578.261 132.444 583.695C136.211 583.761 140.397 580.58 144.909 581.905C140.351 585.417 134.816 584.954 131.281 589.725C129.374 592.309 128.397 595.291 127.048 598.935C130.63 597.544 134.63 594.23 138.025 594.23C137.281 596.218 135.141 597.544 133.653 598.471C131.048 600.062 128.025 600.923 125.792 602.977C124.351 605.23 123.467 608.146 122.583 611.128C126.304 610.399 131.048 606.622 133.932 607.881C130.583 612.387 123.932 610.929 120.955 615.7C119.374 618.218 119.978 621.266 118.444 624.314C122.211 622.856 126.258 619.344 130.49 620.073C127.374 624.182 121.327 624.579 117.513 627.892C116.955 630.609 116.118 633.061 116.072 636.44C119.56 635.91 125.141 631.537 129.141 631.603C124.583 637.965 113.327 635.645 114.444 649.428C118.769 648.235 124.258 644.79 129.978 645.452C124.118 650.952 112.118 648.5 111.699 661.024C117.513 659.832 123.095 655.922 128.211 655.458C124.583 662.416 113.606 659.832 109.792 666.59C114.351 668.446 119.746 667.85 125.141 668.512C130.49 669.175 134.63 671.892 136.909 666.259C136.397 658.44 131.374 650.356 134.072 642.669C134.444 649.229 136.723 656.717 138.211 663.211C139.746 662.085 140.165 659.434 141.141 657.579C140.211 654.928 140.583 651.747 140.118 648.235C139.188 640.946 135.374 632.398 138.444 628.555C138.49 637.169 142.63 644.989 142.351 653.073C144.165 648.567 146.397 645.916 146.816 640.88C147.513 632.796 143.095 622.128 146.676 615.634C146.025 621.73 148.118 630.344 148.397 635.844C150.444 634.386 151.327 627.296 153.234 624.115C153.699 620.405 154.165 616.429 153.513 611.194C152.862 606.025 149.699 600.857 151.327 597.477C153.699 602.778 154.909 609.869 155.792 617.489C157.978 614.043 159.141 609.206 161.699 606.224C161.792 605.098 158.165 590.851 160.351 586.478C161.885 590.785 163.699 597.345 162.955 602.182C165.327 598.935 167.327 595.224 169.56 591.845C169.792 587.273 169.048 581.375 170.165 577.93C171.467 580.183 171.234 584.887 171.56 588.731C174.025 587.472 176.676 582.436 178.909 579.321C179.141 572.562 176.49 565.406 180.072 561.894C179.513 568.056 179.885 572.695 180.583 577.731C182.816 576.207 183.932 573.225 186.676 572.363C185.932 575.61 183.42 576.671 182.397 579.586C186.676 580.911 191.56 580.249 195.653 580.713C191.885 585.682 185.048 581.177 180.444 582.701C177.699 583.628 176.63 586.478 174.723 588.996C179.606 588.134 183.095 589.459 186.909 590.188C185.467 593.899 182.49 591.315 180.676 591.116C177.978 590.785 175.606 592.508 172.397 592.64C170.63 595.357 169.234 598.67 167.095 600.923C170.211 601.785 176.955 599.465 180.025 603.044C176.025 605.959 170.397 601.785 166.165 604.435C163.467 606.158 163.42 610.266 161.56 613.182C165.978 611.459 169.746 611.061 174.025 611.857C171.42 615.634 163.234 613.977 158.909 616.826C159.374 618.483 157.885 620.935 157.048 623.387C160.816 624.248 164.862 621.332 168.49 622.658C165.932 626.898 158.258 624.513 155.095 628.025C154.072 630.874 153.56 634.121 151.932 637.169C154.909 636.971 161.002 634.188 164.769 636.308C163.327 639.356 159.839 637.699 157.188 638.296C154.723 638.892 152.816 640.748 151.048 641.211C150.025 644.458 148.769 647.44 147.885 650.82C150.816 650.687 157.002 648.103 160.304 648.5C157.188 652.94 151.839 651.88 146.955 654.332C145.56 656.783 144.816 660.097 143.746 662.946C147.746 662.151 151.234 660.693 155.56 663.145C151.699 666.458 141.839 662.813 140.165 670.102C147.048 670.765 158.351 672.422 163.699 667.518C165.653 661.024 163.327 649.031 166.397 644.061C166.258 650.555 166.118 655.657 166.676 663.874C168.63 660.362 171.978 659.036 172.955 654.53C174.63 646.976 169.513 635.844 173.513 629.218C173.56 635.91 174.211 645.121 174.955 652.41C177.002 651.085 181.281 641.211 182.583 641.013C182.816 632.796 179.327 621.266 182.444 615.236C181.978 623.32 183.374 630.874 184.583 637.898C186.258 633.26 189.839 631.802 190.816 626.567C192.211 619.079 185.932 608.345 191.048 601.785C190.025 607.682 190.862 615.501 192.723 621.001C196.49 617.555 197.095 609.935 199.141 604.236C198.583 595.622 198.862 588.134 200.862 582.833C202.211 586.146 198.63 594.827 201.048 599.664C204.211 593.833 204.955 584.887 209.095 580.315C207.653 586.809 205.281 592.11 204.165 599.001C206.816 598.339 209.467 593.568 213.002 592.441C210.583 599.532 203.653 601.519 200.63 608.146C198.862 612.055 198.769 616.429 196.49 620.338C201.234 620.868 204.583 615.369 208.444 613.116C206.723 617.953 202.909 622.128 198.676 623.188C197.746 623.453 196.444 622.856 195.56 623.387C191.792 625.573 189.234 636.706 186.025 640.35C194.025 639.687 199.606 635.91 204.118 630.742C201.792 638.362 195.048 642.007 188.165 643.199C187.141 643.398 185.746 642.868 184.676 643.398C180.397 645.651 179.885 654.133 176.444 657.314C182.909 657.446 187.885 653.271 190.816 650.422C189.885 659.5 179.792 659.036 174.49 660.892C171.56 663.41 169.42 666.922 167.141 670.301C178.723 669.572 194.63 671.627 200.955 662.615C200.444 658.506 198.444 654.199 199.141 649.826C200.723 652.344 201.281 656.518 202.909 658.97C208.955 654.729 202.583 643.73 202.537 637.169C204.769 640.416 206.258 644.856 207.467 649.693C208.304 645.519 211.467 643.001 211.606 638.495C211.746 634.32 208.537 630.941 209.467 626.766C211.188 628.423 211.978 631.537 212.862 634.453C214.909 631.139 216.165 626.766 218.072 623.188C215.327 612.851 214.676 603.242 215.048 594.628C217.234 602.447 216.583 612.188 219.653 619.079C222.444 615.236 224.397 610.399 227.979 607.616C227.653 611.658 225.188 612.851 224.072 615.832C228.769 614.507 232.444 611.857 236.397 609.537C233.281 615.104 227.141 616.76 222.118 619.875C220.63 622.79 219.374 626.103 218.258 629.549C223.746 628.621 228.165 623.784 232.63 623.121C227.467 630.609 215.467 629.284 214.118 641.675C220.211 642.47 225.234 637.766 229.885 635.181C226.862 641.344 218.63 644.723 213.141 644.723C211.746 647.772 210.537 651.085 209.281 654.398C213.048 654.332 218.955 650.621 221.606 649.097C219.885 655.326 213.978 654.332 210.072 657.314C207.374 659.368 205.792 662.88 204.072 665.663C206.769 664.868 210.165 665.066 212.723 664.072C213.513 663.741 218.072 656.32 221.188 656.585C220.769 659.169 219.42 660.627 218.258 662.217C219.932 661.886 221.234 661.488 223.048 660.428C227.141 652.278 230.304 643.001 236.583 637.766C232.955 644.591 228.816 650.687 226.49 659.235C237.048 658.44 234.769 640.946 243.141 637.302C240.723 642.205 237.281 646.579 236.072 653.868C238.49 654.663 241.002 651.416 243.606 650.886C246.583 642.272 249.374 633.459 255.048 628.356C251.746 634.983 248.537 641.675 246.351 649.76C252.769 649.561 254.444 640.681 258.165 638.561C257.42 641.874 255.56 643.73 254.63 646.711C257.002 648.037 262.444 643.995 263.374 648.633C259.699 649.561 254.118 650.82 251.234 649.958C255.932 654.398 260.537 658.97 264.258 664.934C256.304 661.554 250.63 645.916 240.63 655.061ZM110.211 238.262C112.862 240.713 116.909 243.165 119.792 243.563C120.211 246.611 118.49 248.93 117.141 248.201C117.234 246.81 118.676 246.014 117.746 244.689C116.63 245.02 116.118 244.49 115.281 244.358C114.816 246.014 114.63 247.936 112.955 248.002C112.769 245.948 114.165 244.225 113.141 242.569C111.885 243.761 110.816 245.219 110.537 247.671C120.211 255.026 127.792 265.761 137.095 273.646C140.537 272.122 140.165 265.629 143.746 264.303C138.118 245.816 123.048 244.623 110.211 238.262ZM108.351 244.822C109.048 244.755 108.816 246.147 109.792 245.749C109.979 244.093 110.769 243.231 111.048 241.707C109.234 240.316 108.537 242.701 108.351 244.822ZM108.072 237.4C107.42 237.93 106.862 236.009 106.676 237.466C106.909 237.599 108.072 238.593 108.072 237.4ZM109.048 234.352C110.397 234.948 110.816 231.967 109.979 231.304C109.513 232.165 108.769 232.629 109.048 234.352ZM111.141 235.213C111.746 235.147 112.211 235.28 112.537 235.611C112.816 234.485 113.188 232.298 112.769 231.635L111.746 231.701C112.025 233.491 111.048 233.623 111.141 235.213ZM114.676 236.472C115.002 235.677 116.025 231.701 114.537 231.503C115.048 233.424 113.048 236.207 114.676 236.472ZM108.118 227.991C108.816 228.057 108.862 229.316 109.56 229.382C110.118 229.051 110.072 227.858 110.537 227.328C111.699 227.262 111.42 229.382 112.676 229.183C113.327 228.918 112.909 227.262 114.025 227.593C114.351 229.78 115.141 229.714 116.118 228.455C116.211 229.183 116.723 229.25 116.862 229.912C117.281 232.364 115.281 236.141 117.095 237.334C118.118 236.141 117.188 232.364 117.932 230.84C120.118 231.569 118.583 236.075 118.537 238.262C126.118 240.647 131.699 246.081 140.025 247.207C139.979 243.496 142.444 243.099 142.909 240.051C140.444 237.533 137.141 231.768 134.351 233.159C133.374 232.894 133.746 230.641 132.537 230.774C132.537 232.364 132.397 233.756 131.234 233.822C130.304 232.961 132.49 229.647 130.397 229.912C129.374 230.442 130.211 233.491 128.769 233.491C128.397 232.828 128.63 230.177 128.955 229.051C123.42 226.864 113.932 224.015 108.118 227.991ZM107.606 233.954C107.513 233.027 107.979 232.828 107.885 231.967L106.49 232.033C106.258 233.623 107.095 233.557 107.606 233.954ZM105.048 240.581C105.234 242.237 106.258 242.502 107.234 242.9C107.048 241.707 107.839 241.774 107.513 240.382C107.002 239.719 105.513 239.852 105.048 240.581ZM104.676 229.183C104.955 229.051 105.374 229.117 105.374 228.653C105.095 228.786 104.676 228.72 104.676 229.183ZM104.49 233.159C105.374 233.888 105.467 231.436 104.769 231.635C104.769 231.967 104.723 232.232 104.444 232.165L104.49 233.159ZM104.909 236.141C104.444 236.141 104.583 235.28 104.165 235.213C103.374 235.81 104.676 237.466 104.909 236.141ZM104.351 240.117L104.304 239.123C103.606 237.533 102.676 240.713 104.351 240.117ZM102.258 228.852C102.63 228.786 102.816 229.515 102.955 228.786C102.909 228.322 102.304 228.256 102.258 228.852ZM103.467 245.617C103.42 244.424 103.699 242.105 101.932 241.774C101.188 243.364 102.49 245.153 103.467 245.617ZM100.025 245.352C99.0948 246.942 101.281 246.81 101.188 248.731C102.072 248.731 102.258 247.87 102.537 247.141C101.374 247.008 101.42 245.02 100.025 245.352ZM99.9785 233.954C100.165 235.147 99.3739 235.081 99.6994 236.472C100.816 237.135 101.281 233.491 99.9785 233.954ZM98.3506 227.129C99.2808 226.732 99.0948 228.057 99.7925 228.057C99.3273 226.533 99.2808 224.346 98.2576 223.684L98.3506 227.129ZM95.2808 227.858C95.0018 230.641 95.0948 233.424 96.2111 235.213C100.025 234.021 97.932 226.864 95.2808 227.858ZM96.3506 240.183C96.2576 240.515 95.5599 242.171 96.3971 242.171C96.4901 241.84 97.2343 240.183 96.3506 240.183ZM95.1413 213.015C95.5134 212.949 95.6994 213.678 95.839 212.949C95.7925 212.419 95.1878 212.352 95.1413 213.015ZM94.3971 222.955C96.211 223.22 97.0948 222.358 97.839 221.232C97.7459 219.178 95.7925 216.726 97.2808 215.334C94.025 208.708 90.9087 219.641 94.3971 222.955ZM93.7459 234.352C90.5831 232.364 90.0715 239.388 92.2111 240.912C94.025 240.448 94.7227 237.069 93.7459 234.352ZM93.0483 245.352C93.839 244.093 91.8855 244.159 91.9785 244.954C91.9785 244.888 93.1878 245.153 93.0483 245.352ZM91.3738 247.406C91.4669 248.665 91.932 249.261 92.8157 249.261C92.8622 247.87 91.7925 248.135 91.3738 247.406ZM91.6064 211.756C93.0018 211.226 93.9785 210.099 94.2576 208.112C93.2808 205.991 92.5831 203.473 90.9552 202.413C87.3273 203.606 90.3041 210.298 91.6064 211.756ZM90.1646 220.238C91.5599 221.298 91.6064 217.123 90.4436 217.72C90.7227 219.111 89.9785 219.045 90.1646 220.238ZM87.4669 201.618C88.1645 200.889 88.5832 199.895 88.7692 198.57C87.6994 197.509 87.2808 195.323 85.5134 195.323C84.8622 197.907 85.6064 201.419 87.4669 201.618ZM87.3739 210.033C86.6762 212.419 86.4901 215.997 88.6297 216.395C90.1645 214.605 89.5599 210.232 87.3739 210.033ZM75.6064 222.69C75.932 221.563 76.118 220.172 76.5366 219.178C75.0948 218.581 74.8157 221.961 75.6064 222.69ZM76.0715 226.135C78.211 226.069 78.2111 223.286 78.6762 221.033C78.1646 220.967 78.0715 220.238 77.6064 220.105C77.3739 222.292 75.4669 224.346 76.0715 226.135ZM79.0018 230.906C78.8622 232.894 77.6064 233.491 77.7925 235.942C79.4669 236.87 80.0715 233.888 80.0715 231.304C79.6529 231.304 79.5599 230.708 79.0018 230.906ZM79.6529 217.985C79.3739 218.117 78.9552 218.051 78.9552 218.515C79.2343 218.382 79.6529 218.449 79.6529 217.985ZM76.6762 234.021C77.1878 232.629 77.8855 231.503 78.2576 229.979C77.7925 229.979 77.7459 229.382 77.1878 229.581C77.0948 230.774 75.6064 232.762 76.6762 234.021ZM78.7227 254.165C78.8157 253.834 79.5134 252.177 78.6762 252.177C79.0483 253.105 77.6994 253.966 78.7227 254.165ZM79.9785 238.792C78.9087 238.858 78.2111 241.84 78.7227 242.37C78.9552 240.912 79.6994 240.117 79.9785 238.792ZM79.7925 244.225C81.1413 243.828 82.2111 240.581 81.0483 239.653C81.0483 241.707 79.5599 241.906 79.7925 244.225ZM81.2808 235.677C81.0018 235.81 80.5831 235.744 80.5831 236.207C80.8622 236.141 81.2808 236.207 81.2808 235.677ZM81.3738 228.786C81.0948 228.918 80.6762 228.852 80.6762 229.316C80.9552 229.183 81.3738 229.25 81.3738 228.786ZM81.5134 210.895C81.7459 204.467 73.8855 205.461 76.7227 213.678C77.0948 212.949 76.9552 211.425 78.025 211.624C78.5831 214.274 77.1878 214.274 77.1413 216.13C78.9552 214.539 81.3739 213.877 81.5134 210.895ZM81.9785 225.738C83.6994 225.473 84.6762 224.214 86.0715 223.485C87.9785 219.045 84.2576 213.81 81.6994 217.852L81.9785 225.738ZM82.6297 213.346C82.8157 212.154 83.7459 211.955 83.932 210.762C82.9552 210.63 82.025 213.015 82.6297 213.346ZM84.6762 212.684C84.6762 213.015 84.6297 213.28 84.3506 213.214L84.3971 214.208C85.2808 214.937 85.3273 212.419 84.6762 212.684ZM83.6994 236.539C88.025 237.201 88.5831 227.858 85.1878 228.521C82.4436 228.985 84.2576 234.816 83.6994 236.539ZM83.6064 201.353C81.2808 201.883 81.839 207.979 83.839 208.244C86.3041 207.847 85.6994 201.684 83.6064 201.353ZM80.7692 199.1C81.7459 197.178 83.5134 196.317 83.6994 193.467C81.5599 187.504 77.7925 195.256 80.7692 199.1ZM77.9785 188.895C79.1413 190.154 79.5134 189.359 80.3971 188.232C80.5832 188.829 80.8157 189.359 81.1413 189.69C81.1413 188.895 82.0715 189.359 82.1646 188.63C80.9552 187.106 79.1878 186.51 77.932 187.437L77.9785 188.895ZM75.839 197.907C75.932 200.69 74.7227 203.871 75.0483 205.395C79.1413 206.19 80.025 197.642 75.839 197.907ZM77.3739 191.877C77.0018 191.214 76.7692 190.419 76.2576 189.955C75.5599 191.943 73.3273 191.811 73.6529 195.058C75.4204 196.317 77.0948 193.997 77.3739 191.877ZM72.7227 186.708C74.9552 186.178 74.2576 187.901 74.211 190.088C76.5831 190.022 75.9785 186.046 77.1413 184.455C74.8157 183.263 73.6064 184.058 72.7227 186.708ZM73.7459 217.852C72.6762 218.515 72.3041 220.039 72.118 221.894C73.4669 221.629 73.1413 219.178 73.7459 217.852ZM72.9552 226.334C73.0483 226.997 71.6064 227.924 72.6762 228.322C72.5831 227.726 73.7925 226.4 72.9552 226.334ZM71.9785 185.781C71.7459 185.052 73.2808 184.455 72.2576 184.257C72.3506 184.787 70.8157 185.383 71.9785 185.781ZM71.839 192.738C71.9785 191.612 72.4436 190.154 71.7459 189.293C71.0948 189.226 71.0018 189.889 70.3971 189.889C70.118 192.009 71.0017 192.341 71.839 192.738ZM70.025 200.756C71.1413 200.226 70.5366 202.347 71.4669 202.148C71.9785 201.154 73.1878 197.907 71.6529 197.178C71.2343 198.503 70.5831 199.564 70.025 200.756ZM71.4204 210.63C71.5599 209.238 72.211 208.509 72.3506 207.118C70.7227 206.256 70.6297 209.834 71.4204 210.63ZM71.3273 218.515C71.5134 217.455 72.025 216.858 72.3041 215.997L70.9087 216.063C71.0948 216.792 70.5832 218.648 71.3273 218.515ZM72.0715 252.177C73.5599 251.382 73.6994 253.767 74.5366 252.508C74.5831 251.581 74.118 251.448 74.118 250.587C72.9087 250.454 72.6297 251.514 72.0715 252.177ZM70.4436 255.225C71.9785 254.43 71.4204 256.815 72.5831 256.55C73.2343 255.291 72.4901 252.84 71.4204 252.641C71.2343 253.767 70.7227 254.364 70.4436 255.225ZM66.8622 252.044C67.3273 251.978 67.6529 252.243 67.932 252.442L67.8855 250.984L67.1878 251.05C67.1878 251.514 66.9087 251.581 66.8622 252.044ZM66.2111 254.562C65.7459 254.562 65.8855 253.701 65.4669 253.635C65.1413 254.629 66.118 255.888 66.2111 254.562ZM65.1413 263.508C65.4669 262.845 65.4204 261.653 65.7459 260.99L64.7227 261.056C64.9087 261.785 64.3971 263.641 65.1413 263.508ZM62.7692 265.165C63.5134 265.695 63.0948 268.147 63.932 268.544C63.7459 266.821 65.3273 265.032 64.4901 264.038C64.2111 265.363 62.7692 263.044 62.7692 265.165ZM61.932 261.255C63.4204 261.52 62.9552 258.605 62.1645 258.273C62.2111 259.4 61.6529 259.731 61.932 261.255ZM60.211 262.382C61.1878 262.249 59.8855 265.629 61.3273 264.767C61.0948 264.104 60.9552 260.592 60.211 262.382ZM58.118 303.598C58.7692 291.008 61.4203 278.55 63.2343 269.074C62.4436 271.261 62.3041 265.363 61.4669 267.683C62.2111 267.55 61.6994 269.406 61.8855 270.134C61.2808 271.128 60.8622 269.604 60.1646 270.731C59.9785 271.924 59.7459 273.05 59.932 274.707C58.7692 274.707 59.2808 275.833 57.8855 276.297C58.7227 272.918 57.839 272.189 57.6064 268.412C58.5831 268.412 58.2576 270.466 59.4204 270.267C59.839 268.213 60.4901 265.496 58.8622 264.369C55.1413 273.448 52.025 283.255 49.7459 294.188C50.3506 296.044 51.2808 297.303 52.6297 297.965C53.5134 295.977 53.4669 292.73 54.8622 291.405C54.8622 294.983 54.4901 298.164 53.4204 300.417C55.0483 301.477 55.7459 303.796 58.118 303.598ZM73.3738 270.4C72.3971 270.068 71.9785 268.809 71.1878 268.08C70.118 271.128 72.8622 272.652 72.118 274.972C70.6762 275.701 71.1413 273.381 70.3041 273.116C68.118 276.363 72.2576 278.152 71.2343 281.002C69.5599 279.411 68.118 277.556 67.5599 274.309C69.7459 272.785 70.4901 265.761 69.2808 262.779C72.4436 262.647 71.5134 257.478 70.118 255.821C63.9785 272.056 58.4901 292.399 60.6297 316.387C63.0948 317.778 64.4436 320.826 68.0715 320.362C70.8157 304.592 70.3506 284.514 73.3738 270.4ZM74.4901 262.912C73.2343 263.508 73.3273 261.918 72.7227 261.52C71.4204 264.038 71.9785 267.285 73.6529 268.875C73.4204 266.225 74.2576 264.966 74.4901 262.912ZM75.0948 259.4C73.9785 259.93 74.3506 258.141 73.6529 258.008C73.0018 259.267 74.1645 261.056 74.4901 262.382C74.9552 261.719 74.6297 260.062 75.0948 259.4ZM74.9087 254.43C74.5831 255.821 74.7227 257.279 75.3738 258.339C75.1413 257.147 76.5366 254.43 74.9087 254.43ZM87.6529 261.056C87.2808 258.472 86.8622 254.695 85.3273 253.767C82.3506 257.147 83.6529 266.092 81.3273 270.4C80.1646 263.508 83.1878 257.08 81.7925 253.038L81.0948 253.105C75.3273 273.58 73.0018 298.297 78.4436 320.627C80.8622 320.892 85.3739 322.748 87.0948 320.031C88.2576 318.176 88.4436 310.489 88.7227 306.049C89.6529 291.339 89.5599 273.978 87.6529 261.056ZM89.0018 238.659C87.6529 235.744 85.1413 238.725 84.9087 241.376C86.9087 240.78 85.6529 244.093 85.3738 244.822C87.2808 243.695 88.8622 242.105 89.0018 238.659ZM88.7227 219.376C88.6762 218.78 88.5831 218.184 87.9785 218.449C88.0715 219.045 87.9785 219.84 88.3971 219.906C88.3971 219.575 88.4436 219.31 88.7227 219.376ZM90.5366 231.635C92.8622 230.111 94.3971 223.485 90.9087 222.226L89.8855 222.292C89.6994 225.539 87.3273 230.774 90.5366 231.635ZM97.3273 248.532C97.3273 249.46 96.2111 248.93 96.3506 250.057C97.2343 249.725 97.6064 250.189 97.4204 251.448C96.3971 252.906 95.5599 250.918 94.6297 250.653C95.6994 255.954 97.932 260.725 97.6064 267.285C96.6297 263.972 95.5134 260.858 94.8622 257.08C94.2576 256.815 92.8622 257.809 92.7692 256.749C92.3971 255.159 93.8855 255.954 94.118 255.159C93.6994 253.966 93.839 251.779 92.6297 251.779C90.8622 252.773 91.1878 256.285 91.1413 258.803C90.9087 267.086 91.3738 276.429 92.3506 285.441C93.3273 294.321 96.2576 316.85 101.374 317.513C102.537 317.646 104.211 317.844 104.072 315.326C104.165 313.935 102.211 315.856 102.304 314.465C103.885 313.471 104.165 310.887 104.909 308.832C105.653 310.29 105.234 313.471 105.467 315.724C107.095 315.459 107.513 313.67 109.234 313.471C109.374 289.351 104.816 264.171 97.3273 248.532ZM116.211 283.387C117.42 286.7 119.002 293.459 121.095 293.989C123.188 294.52 125.746 291.604 126.862 289.152C126.676 288.423 126.304 287.959 126.118 287.231C124.769 287.363 123.932 289.881 123.002 287.959C123.467 286.502 125.188 286.7 125.327 284.845C124.909 282.194 121.606 280.405 123.002 278.086C124.676 279.478 125.792 281.664 126.676 284.249C127.467 284.447 128.49 282.592 128.723 283.586C128.025 285.176 126.955 286.303 127.513 289.616C135.839 290.146 131.885 279.478 129.467 274.64C123.885 263.376 112.769 251.647 105.56 245.02C105.513 246.014 104.63 246.081 104.583 247.075C107.374 248.599 110.63 252.111 111.467 255.026C109.746 254.231 108.676 253.303 106.583 254.364C106.351 252.84 107.606 253.171 107.188 251.382C105.792 251.183 105.234 253.436 104.072 252.111C104.118 250.785 105.467 250.123 104.676 249.129C103.42 248.267 103.188 249.924 102.304 250.785C106.072 259.4 112.025 272.056 116.211 283.387ZM124.165 505.768C123.327 505.172 124.118 502.058 123.002 501.859C122.909 503.648 123.56 506.829 124.165 505.768ZM71.7459 104.608C71.1413 105.999 69.932 109.18 70.5366 110.638C71.3273 109.379 72.2576 105.867 71.7459 104.608ZM75.1413 101.891C74.2576 101.891 74.0715 102.752 73.4204 103.017C74.3041 104.74 72.2111 107.656 72.9087 108.981C73.8855 106.861 74.5366 104.409 75.1413 101.891ZM75.9785 105.27C75.9785 103.216 77.7459 100.963 77.1878 99.7704C76.9552 101.559 75.2343 103.879 75.9785 105.27ZM116.955 72.3371C115.885 71.9396 115.281 70.813 114.118 70.548C112.816 72.9997 115.653 74.1926 115.281 74.9214C114.723 76.8431 113.885 75.319 112.862 75.0539C110.304 79.6262 107.42 86.2525 103.885 88.0416C106.723 83.8008 109.699 79.7587 111.42 74.1925C112.444 73.6624 110.583 73.53 111.002 72.2709C112.258 71.8733 112.676 70.3492 112.955 68.6927C112.304 68.4939 112.304 67.3011 111.188 67.8312C104.537 78.1021 93.9785 89.4332 85.0948 98.7764C81.6529 102.421 76.2576 107.258 76.4901 112.692C80.118 114.68 81.0948 123.559 84.5366 124.553C90.3041 126.21 98.8622 109.842 100.955 106.132C106.909 95.7945 113.467 83.9996 116.955 72.3371ZM78.3041 102.686C79.4204 101.493 82.4436 98.1137 81.2343 97.0535C80.6297 98.3125 80.2576 99.9029 79.2808 100.632C79.1878 100.035 79.2808 99.2402 78.8622 99.174C79.2343 100.764 77.2808 101.758 78.3041 102.686ZM83.0018 97.915C83.7459 96.0596 87.7925 94.403 85.932 92.2825C85.2808 93.409 84.4901 97.0535 83.6064 94.9331C83.5134 95.7283 82.0715 97.1861 83.0018 97.915ZM109.56 16.4105C109.281 16.3443 109.141 16.0129 109.188 15.4166C107.513 16.4105 105.885 17.4045 104.444 18.7298C105.281 18.9948 105.42 20.3201 106.258 20.5852C107.048 18.7961 108.862 18.3322 109.56 16.4105ZM98.5366 40.398L100.63 40.2655C100.63 38.7414 99.6994 38.6089 98.8157 38.4101C98.9087 39.3378 98.4436 39.5365 98.5366 40.398ZM96.7227 27.6091C96.8157 28.8682 97.2808 29.4645 98.1645 29.4645C98.6762 29.0006 99.2343 28.6693 99.1413 27.4103C98.6297 27.344 98.5366 26.6151 98.0715 26.4826C97.839 27.2115 97.3738 27.5429 96.7227 27.6091ZM96.6297 25.1573C95.5599 25.0911 95.0483 24.1634 94.1645 23.832C94.2576 25.2236 93.1413 25.0248 93.1878 26.3501C94.3971 27.079 96.4901 27.9404 96.6297 25.1573ZM102.769 21.7779C101.095 22.4405 99.932 23.7659 99.4204 25.9526C101.095 27.2115 103.141 23.1694 102.769 21.7779ZM99.5599 29.9283C99.5134 31.5187 101.141 31.6512 101.653 30.7897C101.932 28.8681 100.072 29.1332 99.5599 29.9283ZM99.7925 36.3559C100.63 36.0909 100.583 37.2173 101.56 36.7535C101.606 35.1631 101.048 34.4343 100.072 34.368C100.165 35.2957 99.6994 35.4945 99.7925 36.3559ZM100.816 46.693C100.816 45.434 101.932 45.6329 102.862 45.5666C102.955 46.163 102.862 46.9581 103.281 47.0243C103.234 45.6991 103.327 44.175 102.816 43.5787C101.188 43.0486 100.211 45.8979 100.816 46.693ZM105.327 25.0911C103.792 23.8321 102.769 26.6151 101.932 27.8079C103.513 29.7958 104.397 26.6152 105.327 25.0911ZM104.444 30.0608C105.234 30.1271 106.397 28.2718 105.746 28.0067C105.792 29.2657 104.444 28.8019 104.444 30.0608ZM106.955 22.5068C108.118 24.0308 110.583 21.1152 111.002 18.796C109.188 19.3924 107.513 20.2538 106.955 22.5068ZM118.025 41.0606C119.513 43.4461 125.281 44.904 124.909 39.139C122.862 36.0246 118.769 36.6872 118.025 41.0606ZM122.49 18.0009C122.49 17.4708 121.839 17.4045 121.792 18.0671C122.165 18.0008 122.351 18.7298 122.49 18.0009ZM122.118 49.7413C124.118 52.4581 127.42 50.1388 128.676 47.8196C127.327 42.9824 122.862 46.0304 122.118 49.7413ZM125.699 32.1813C125.42 32.3139 125.002 32.2475 125.002 32.7114C125.327 32.5789 125.699 32.6452 125.699 32.1813ZM142.862 57.2952C142.444 58.8193 141.327 59.4157 140.909 60.8735C142.723 61.4699 143.513 58.2892 142.862 57.2952ZM143.188 66.1746C142.444 65.777 141.932 67.8975 142.537 67.6987C142.537 66.9036 143.374 67.2349 143.188 66.1746ZM140.676 64.3193C140.072 65.9096 138.397 66.1084 138.025 67.9638C138.397 68.03 138.583 68.4938 138.769 68.8914C139.792 68.1625 142.025 65.1807 140.676 64.3193ZM139.513 71.8733C138.444 71.3431 138.072 74.06 138.909 74.3913C139.048 73.3974 139.885 73.3973 139.513 71.8733ZM138.397 59.0182C138.63 57.4278 139.234 56.3675 139.653 54.976C138.211 55.3073 137.979 57.229 137.327 58.6205C135.188 58.753 137.374 59.482 138.397 59.0182ZM137.42 71.0119C137.699 70.8794 138.118 70.9456 138.118 70.4817C137.839 70.6142 137.42 70.548 137.42 71.0119ZM137.606 55.1086C138.583 55.1086 138.444 53.6508 138.909 53.0544C137.839 52.9219 137.374 53.5845 137.606 55.1086ZM138.816 49.6087L138.769 48.1509C137.979 48.0846 137.467 48.3497 137.42 49.2111C137.885 49.3436 138.072 49.8737 138.816 49.6087ZM140.537 50.0062C141.42 50.205 142.444 48.1509 141.513 47.4883C141.839 49.1448 140.118 48.1509 140.537 50.0062ZM141.746 43.4462C141.56 45.4341 139.467 44.904 139.792 47.5545C140.816 47.0244 142.444 44.7715 141.746 43.4462ZM139.653 43.1149C138.769 44.9703 136.862 45.4341 136.676 48.2834C137.885 47.3557 140.769 43.91 139.653 43.1149ZM137.42 38.8077C134.444 37.6813 131.792 40.4643 131.327 44.1751C133.885 46.428 138.025 43.7112 137.42 38.8077ZM124.397 76.313C124.816 76.1805 125.374 76.313 125.42 75.7166C123.56 76.1805 122.583 75.319 121.234 74.9877C121.699 76.7106 124.211 77.9033 124.816 77.7045C124.351 77.7045 124.351 77.0419 124.397 76.313ZM121.095 60.6747C120.676 60.8073 120.118 60.6747 120.072 61.271C120.49 61.1385 121.048 61.2711 121.095 60.6747ZM126.211 68.2951C125.513 67.4336 125.327 68.295 124.49 68.4276C124.49 69.289 124.63 69.9517 124.909 70.3492C125.746 70.2167 126.211 69.5541 126.211 68.2951ZM127.699 61.271L127.653 59.2831C125.327 59.0843 124.676 61.0723 123.234 62.0663C123.141 63.6566 124.165 63.3915 124.676 63.9216C125.048 61.6024 125.932 59.9458 127.699 61.271ZM127.327 71.1444C128.723 71.2106 128.862 69.6866 129.699 69.024C129.234 69.0903 128.909 68.8252 128.63 68.6264C128.444 69.7529 127.56 70.0179 127.327 71.1444ZM129.979 76.9094C129.281 75.9817 128.351 76.7768 127.56 77.0419C127.513 79.1623 129.699 77.5057 129.979 76.9094ZM127.699 82.0779C128.816 81.4816 130.676 81.8129 130.769 79.8912C130.118 78.4997 128.909 80.2888 127.979 80.09C128.025 80.8852 127.932 81.6141 127.699 82.0779ZM133.281 50.934C133.467 53.1869 131.885 53.2532 131.699 54.976C134.165 54.976 134.723 52.5906 135.002 49.8075C132.955 49.4762 128.769 50.4701 128.211 54.7111C130.537 55.9038 131.234 51.6628 133.281 50.934ZM134.723 62.7289C134.258 62.7289 134.211 62.1326 133.653 62.3314C133.095 63.1928 133.42 64.9156 134.118 65.2469C134.025 64.0541 134.583 63.7229 134.723 62.7289ZM131.979 64.4518C131.979 65.7107 130.49 65.0481 131.002 66.9698C131.699 66.6385 133.281 67.4336 133.42 66.3072C132.63 66.1747 132.63 64.8494 131.979 64.4518ZM130.955 75.9154C132.49 77.1744 133.979 74.9877 134.723 73.6625C133.234 74.0601 131.746 74.5239 130.955 75.9154ZM132.118 79.2949C133.002 80.09 136.118 77.7045 135.513 76.5781C134.909 78.1684 132.258 77.1081 132.118 79.2949ZM135.188 55.7712C135.374 56.964 134.583 56.8976 134.909 58.2892C135.979 58.4217 136.258 55.8375 135.188 55.7712ZM132.397 34.1692C130.955 31.3862 127.467 33.5066 126.537 35.5608C127.327 35.6933 126.63 38.2114 127.327 38.4764C130.025 38.3439 131.653 36.8198 132.397 34.1692ZM119.932 45.8979C120.49 45.8979 120.258 47.1569 121.002 46.8256C121.234 45.7654 119.792 45.0365 119.932 45.8979ZM115.188 61.0723C115.095 61.4036 114.397 63.0602 115.234 63.0602C114.909 62.1326 116.258 61.3374 115.188 61.0723ZM114.769 58.6205C113.885 58.753 113.002 58.8193 113.095 60.2109C113.885 60.0121 114.537 59.6145 114.769 58.6205ZM117.095 45.5666C114.258 44.7714 112.676 46.6268 112.025 49.8737C113.048 50.4039 113.234 47.422 113.746 48.7473C114.025 50.2714 113.188 50.2714 113.513 51.7292C116.211 51.7292 118.258 49.1448 117.095 45.5666ZM117.095 55.97C117.095 54.711 118.444 55.1748 118.397 53.9158C117.699 53.982 116.072 55.2411 117.095 55.97ZM119.699 28.6031C117.606 28.6694 116.49 30.1271 115.281 31.3862C115.839 31.7837 115.188 32.115 115.699 33.3078C118.258 35.2957 121.932 32.4464 119.699 28.6031ZM120.816 21.049C118.304 18.2659 116.49 22.9044 115.746 25.3561C117.513 25.6212 121.653 25.6875 120.816 21.049ZM117.234 17.3382C116.955 17.4708 116.537 17.4045 116.537 17.8683C116.816 17.7358 117.234 17.8683 117.234 17.3382ZM117.141 14.4227C116.304 14.754 114.583 13.9588 114.397 15.0853C114.909 15.6816 117.141 15.8804 117.141 14.4227ZM113.699 36.886C112.769 38.0788 110.909 40.5305 111.42 41.9883C111.746 42.5184 114.909 42.5184 115.56 40.7293C115.746 38.2113 114.723 37.615 113.699 36.886ZM111.606 37.0185C111.56 38.2113 109.374 39.139 110.304 40.0666C110.537 39.0727 112.537 37.9462 111.606 37.0185ZM114.211 20.5189C113.792 20.6514 113.234 20.5189 113.188 21.1152C113.606 20.9827 114.165 21.1152 114.211 20.5189ZM113.095 18.5973C113.002 17.6696 112.816 16.9407 112.351 16.6756C111.839 17.4708 112.025 18.9286 113.095 18.5973ZM110.816 33.109C112.816 33.9704 113.606 30.7236 112.769 29.5308C112.351 31.0549 111.234 31.6512 110.816 33.109ZM112.165 22.1755C110.49 22.6393 109.188 23.6333 108.444 25.4224C110.118 24.8923 111.141 23.5007 112.165 22.1755ZM118.118 65.3132C118.072 66.3072 117.188 66.3734 117.141 67.3674C118.211 67.9637 119.048 65.8433 118.118 65.3132ZM119.606 58.2892C120.444 56.5663 122.444 56.3013 122.211 53.1869C121.42 52.458 120.351 54.8435 119.42 52.8556C119.095 54.9761 117.885 55.9037 117.513 57.9579C118.583 57.494 118.816 58.3555 119.606 58.2892ZM126.258 81.1502C123.746 81.4153 120.583 74.9877 119.979 80.09C122.118 80.6864 125.048 80.1563 125.653 83.2045C124.025 83.6683 121.56 81.8791 119.327 81.6141C116.769 89.8308 113.327 96.921 111.048 105.469C107.374 113.487 103.188 120.842 100.397 129.92C101.095 132.637 105.188 132.77 106.723 132.438C106.072 131.908 105.048 131.975 105.234 130.053C107.327 129.722 108.723 130.45 108.816 133.3C108.165 133.565 106.583 132.372 107.42 133.366C110.49 136.017 113.885 139.131 116.862 135.685C124.304 127.204 126.165 99.2402 126.258 81.1502ZM137.002 79.4274C135.513 80.2888 131.979 80.6201 132.955 83.1381C133.746 83.9333 136.211 80.4213 137.792 82.3429C136.909 84.5297 133.979 83.9996 133.048 86.12C133.792 85.9875 133.281 87.8429 133.467 88.5718C134.258 89.8971 135.374 85.9875 136.583 87.8429C136.258 89.632 134.444 89.4332 133.885 91.0235C135.281 94.8005 135.746 102.487 134.397 106.33C134.118 99.704 133.467 94.1379 131.979 86.1863C131.467 85.9213 130.211 86.9152 130.211 85.7887C130.397 84.5297 132.304 84.3309 131.141 82.7405C130.769 82.1442 128.63 83.2044 128.072 83.9333C129.606 99.7041 124.304 113.818 125.746 129.191C135.42 127.137 140.118 124.487 141.188 112.294C142.165 101.294 140.444 86.5176 137.002 79.4274ZM143.932 67.5662C143.513 69.4215 141.327 71.4094 142.025 73.1323C142.397 71.7408 143.839 70.1505 144.723 70.9457C143.374 72.536 142.862 75.1202 141.048 76.1142C140.955 75.2527 141.327 73.5961 140.304 74.1925C139.002 76.1804 140.769 79.0298 141.56 81.0177C143.653 86.2526 145.002 92.5476 147.606 95.9933C149.281 90.7585 154.165 85.7887 153.699 79.7587C153.327 74.9877 146.862 69.0902 143.932 67.5662ZM146.49 51.0665C146.025 53.1869 148.304 51.0002 148.258 52.4581C148.816 54.7773 147.42 57.0303 148.444 58.4218C148.583 56.8977 148.397 54.9098 149.699 54.8435C149.792 55.2411 150.025 55.3736 150.397 55.3073C150.211 57.0964 149.885 61.1386 148.211 62.3976L148.118 59.4158C146.723 59.8133 147.188 62.6626 145.42 62.5964C145.234 60.5422 146.63 58.8193 145.606 57.1628C144.165 57.6266 144.165 60.0121 143.653 61.735C147.095 63.1265 148.397 67.8312 152.211 68.6264C152.258 62.3314 152.723 50.5364 146.49 51.0665ZM145.606 55.5724C146.676 56.1025 147.048 53.3857 146.211 53.0544C146.304 54.3135 145.746 54.6447 145.606 55.5724ZM146.537 30.7897C146.258 30.9223 145.839 30.8561 145.839 31.3199C146.118 31.1874 146.537 31.2536 146.537 30.7897ZM147.699 24.2297C145.746 24.826 143.467 25.0248 143.281 28.0067C145.606 29.6633 148.862 27.0127 147.699 24.2297ZM148.909 28.6031C148.909 29.9946 148.351 30.7235 148.351 32.115C149.606 32.7114 149.606 29.1332 148.909 28.6031ZM145.467 19.9225C148.351 18.4648 148.816 21.7117 150.676 19.5912C149.374 18.1997 149.839 17.2057 148.816 15.2841C146.165 14.9528 143.606 17.2057 145.467 19.9225ZM143.141 12.1697L143.839 12.1034L143.792 11.1094L143.095 11.1757L143.141 12.1697ZM143.048 20.1213C141.188 20.3863 139.792 21.2478 138.955 22.8381C139.467 25.0911 142.118 24.0972 143.141 23.0369L143.048 20.1213ZM138.397 16.4768C140.258 17.6033 142.211 16.0792 141.746 12.766C141.048 12.8323 141.281 11.4407 140.304 11.8383C139.979 13.76 139.653 15.6816 138.397 16.4768ZM138.351 35.2957C140.304 35.6933 142.955 36.0909 142.769 32.5127C140.955 31.5187 138.583 32.7777 138.351 35.2957ZM137.746 27.8742C135.374 27.6091 134.63 29.5308 133.699 31.1211C135.42 32.3138 138.118 30.9886 137.746 27.8742ZM132.816 14.8202C133.606 15.8141 134.49 14.1576 135.932 14.6215C135.885 13.0974 136.583 12.6335 136.862 11.5732C134.909 11.9046 134.072 13.6937 132.816 14.8202ZM131.699 23.302C133.141 23.6996 135.234 23.9647 136.537 22.9707C137.002 20.9828 136.676 18.9949 136.397 18.0009C133.606 18.2659 131.746 19.5912 131.699 23.302ZM132.816 26.2176C132.351 26.2176 132.304 25.6211 131.746 25.8199C131.281 27.079 133.002 27.2115 132.816 26.2176ZM124.63 20.3201C126.723 20.3201 129.048 21.049 130.165 18.9949C130.537 11.242 124.537 16.2118 124.63 20.3201ZM123.141 27.8742C124.676 31.5187 130.211 29.2657 129.979 24.9586C128.537 22.3743 122.49 23.2358 123.141 27.8742ZM113.653 13.6275C115.792 13.1636 121.42 9.25408 122.025 14.0913C120.63 14.4889 118.304 13.6937 117.513 14.8865C117.792 15.8804 119.56 14.4227 119.281 16.2781C120.63 16.1455 120.816 14.4889 122.351 14.6215L122.258 11.6396C119.281 9.51916 114.258 12.6998 113.141 9.78417C115.792 9.12151 119.885 8.8565 121.792 8.72399C118.351 2.69396 106.676 6.86858 113.653 13.6275ZM110.211 15.3503L111.606 15.2841C111.792 13.2962 110.072 13.76 110.211 15.3503ZM95.6064 3.95293C97.0948 10.3143 101.188 12.501 104.025 16.7419C105.281 16.0129 106.49 15.2178 107.42 14.0251C107.467 12.6998 105.467 11.9046 106.304 11.1094C107.42 11.7058 108.816 13.8263 110.165 12.3685C107.885 5.27825 101.885 1.69994 95.6064 3.95293ZM92.8157 24.8923C92.8622 24.4947 92.7692 23.8984 93.1413 23.8984C92.7692 21.5792 90.6297 21.9105 90.2111 19.6575C91.7459 20.055 92.7692 21.1815 94.1181 21.8441C95.3739 20.3201 96.3506 15.9467 98.4901 17.0732C97.5134 19.1274 96.3506 20.9164 95.1878 22.7718C96.3506 23.0369 96.9553 24.1634 98.025 24.561C98.7227 22.7719 99.839 21.5791 101.002 20.3863C96.7227 12.0372 87.6994 4.48308 78.7227 8.45891C80.8622 8.39263 81.3738 10.8444 83.9785 10.1155C83.6529 12.5672 85.4204 11.7058 85.4669 13.4949C83.4204 12.0371 80.7692 13.5611 79.5599 13.8925C79.1413 12.1034 80.8157 13.0311 80.5366 11.3745C79.0483 10.5793 77.4204 9.98296 75.932 9.18779C74.8157 10.3805 73.0948 11.9046 74.3971 14.754C80.5366 17.8021 86.7227 23.5008 92.8157 24.8923ZM93.6529 39.7353C93.3274 38.0125 94.1181 37.8138 93.8855 36.2234C91.5134 34.5005 87.2343 35.8921 85.4669 33.3078C88.9087 32.9102 91.6064 33.7717 94.2111 34.6993C95.3273 34.4343 95.1413 32.4464 96.5832 32.5789C97.7459 33.3078 95.1413 34.9643 97.0018 35.0306C97.932 36.5547 98.8157 33.9704 99.0018 32.9102C89.2808 27.9405 68.9553 14.6214 60.6297 29.5308C65.3273 28.3381 71.6529 26.8802 75.6064 30.5248C73.0483 31.0549 71.5134 29.9946 69.0018 30.4584C68.3041 31.4524 66.9552 34.0367 66.3041 33.6391C65.7459 32.115 67.7925 30.591 66.2111 30.6573C64.2111 31.7175 64.4901 35.6933 62.2111 36.3559C61.9785 34.0367 63.3273 33.7054 63.0948 31.3199C61.839 31.3862 60.3041 31.9163 59.932 30.5248C59.2808 32.2476 58.5832 35.1632 59.4669 37.4825C70.8622 38.2776 83.1878 37.5486 93.6529 39.7353ZM97.3739 37.0185C96.3041 37.4161 96.3041 36.2234 95.2808 36.6872C95.6994 38.6089 94.3041 38.2114 94.7227 40.1993L97.1413 40.0666C96.8157 38.4763 97.6529 38.4764 97.3739 37.0185ZM104.444 51.3978C102.397 50.2051 99.5599 48.0183 95.9785 48.0183C91.3739 47.9521 86.4436 51.3978 82.8622 50.8677C87.5134 47.4883 93.7459 45.4341 99.7459 46.2955L99.6529 43.3136C98.2111 41.7895 97.2808 44.1088 96.2111 44.5064C95.6529 44.1751 96.2111 42.0546 95.0948 42.5847C91.0483 42.0546 85.6994 43.91 81.2808 44.9702C71.4204 47.3557 54.1645 50.3376 56.5366 63.9216C59.5134 63.6565 61.6064 59.8133 64.4436 60.9397C62.3041 62.9277 60.2576 64.9819 57.2808 65.8433C57.4204 70.813 57.839 75.319 59.7459 77.572C71.7925 65.3132 87.3738 55.705 104.444 51.3978ZM81.0948 92.0837C89.0948 86.2525 94.3971 80.4876 100.676 73.9275C103.792 70.6806 107.979 67.765 108.676 62.994C105.281 58.8856 99.7925 66.1084 96.5832 65.3132C99.2808 62.5301 102.165 59.9459 106.816 59.6808C105.188 52.6569 99.0483 56.964 95.2808 58.488C89.932 60.6084 85.0018 64.518 81.2343 64.8494C79.7925 67.0361 76.4436 67.9637 74.0715 69.7529C71.3738 71.8733 62.3971 79.8249 62.3506 83.9333C62.3041 88.4393 67.0948 91.8187 67.3273 97.4512C71.0483 99.3728 76.9553 95.1318 81.0948 92.0837ZM67.839 112.758C69.1413 112.824 69.5134 109.312 68.7227 108.252C68.9553 110.373 67.839 110.836 67.839 112.758ZM65.1878 115.939C66.7227 114.481 66.7692 111.101 67.3739 108.385C65.3739 109.909 65.6529 114.613 65.1878 115.939ZM22.1645 214.34C22.2576 215.069 22.118 216.196 22.5832 216.262C22.3506 215.401 23.5599 214.142 22.1645 214.34ZM16.118 253.37C15.9785 250.984 17.1878 247.87 16.5831 246.412C16.5366 248.798 14.8157 252.111 16.118 253.37ZM31.0948 605.562C31.0017 603.839 30.4436 602.778 29.932 601.652C29.8855 603.64 30.4436 604.7 31.0948 605.562ZM33.0483 654C33.4203 653.271 33.0017 650.621 31.8855 650.621C31.8855 652.278 32.6296 652.874 33.0483 654ZM32.4901 658.506C32.4901 660.097 32.5831 661.488 33.2808 661.952C33.6994 660.428 33.2343 659.434 32.4901 658.506ZM33.0948 645.055C32.5831 643.796 32.9552 641.145 31.5599 641.211C31.8855 642.802 31.8855 644.922 33.0948 645.055ZM159.979 473.697C160.769 477.341 160.304 483.239 160.723 486.022C160.909 485.359 161.42 485.028 162.072 484.962C161.048 481.648 161.374 476.281 159.979 473.697ZM158.211 462.432C158.816 465.149 158.351 469.853 160.258 471.709C159.978 467.932 160.444 463.028 158.211 462.432ZM155.932 446.197C156.723 451.366 156.955 457.396 158.165 461.902C159.002 458.589 157.374 452.028 156.676 448.649C156.537 447.854 157.234 444.938 155.932 446.197ZM143.513 501.991C148.304 497.353 153.281 492.913 158.025 488.142C156.583 482.642 151.839 482.178 150.025 477.275C153.653 478.136 155.746 481.516 158.583 483.636C159.792 474.161 150.351 474.426 150.397 466.872C152.072 468.064 152.816 470.649 155.048 471.046C155.885 471.974 157.839 476.148 158.304 474.293C157.606 471.245 157.002 467.998 156.583 464.486C153.467 461.902 149.885 457.263 148.909 453.089C151.885 453.486 153.932 460.709 155.746 459.583C156.211 447.523 148.909 445.137 146.723 438.908C147.374 459.914 146.676 481.98 143.513 501.991ZM141.42 512.063C144.769 506.497 149.095 502.19 153.095 497.419C153.978 497.419 154.211 498.281 154.816 497.287C161.141 490.793 169.002 481.317 173.56 475.751C168.537 481.317 162.304 487.413 155.699 493.311C151.095 497.419 141.839 505.106 141.42 512.063ZM31.3738 699.192L29.9785 699.259C30.304 700.981 29.5134 701.18 29.7459 702.77C30.8622 702.24 30.4436 699.855 31.3738 699.192ZM57.4203 676.132C59.5599 676.795 61.0483 681.169 62.7692 680.705C61.1878 679.379 59.6064 673.151 57.4203 676.132ZM96.0715 667.121C91.4203 667.651 86.3506 664.47 82.8622 666.524C88.2576 666.392 91.8855 668.38 96.0715 667.121Z" fill="#BFD3B6" fill-opacity="0.6" shape-rendering="crispEdges"/>
</g>
<defs>
<filter id="filter0_d_106_59714" x="0" y="0" width="268.258" height="808.973" filterUnits="userSpaceOnUse" color-interpolation-filters="sRGB">
<feFlood flood-opacity="0" result="BackgroundImageFix"/>
<feColorMatrix in="SourceAlpha" type="matrix" values="0 0 0 0 0 0 0 0 0 0 0 0 0 0 0 0 0 0 127 0" result="hardAlpha"/>
<feOffset dy="4"/>
<feGaussianBlur stdDeviation="2"/>
<feComposite in2="hardAlpha" operator="out"/>
<feColorMatrix type="matrix" values="0 0 0 0 0 0 0 0 0 0 0 0 0 0 0 0 0 0 0.25 0"/>
<feBlend mode="normal" in2="BackgroundImageFix" result="effect1_dropShadow_106_59714"/>
<feBlend mode="normal" in="SourceGraphic" in2="effect1_dropShadow_106_59714" result="shape"/>
</filter>
</defs>
</svg>
